<svg xmlns="http://www.w3.org/2000/svg" xmlns:xlink="http://www.w3.org/1999/xlink" version="1.1" fill="none" stroke="none" stroke-linecap="square" stroke-miterlimit="10" width="270" height="160"><rect id="backgroundrect" width="100%" height="100%" x="0" y="0" fill="none" stroke="none"/><clipPath id="p.0"><path d="m0 0l960.0 0l0 720.0l-960.0 0l0 -720.0z" clip-rule="nonzero" id="svg_1"/></clipPath><g class="currentLayer"><title>Layer 1</title><path fill="#4caf50" d="m9.746718671092989,147.8490719805336 l0,-139.1496 l253.13385,0 l0,139.1496 z" fill-rule="evenodd" id="svg_205" class=""/><path fill="#2c3e50" d="m85.18241367109299,108.41731198053355 l0,-30.173218 l134.70865,0 l0,30.173218 z" fill-rule="evenodd" id="svg_206" class=""/><path fill="#bdc3c7" d="m5.555118671092988,119.31495198053358 l0,-47.77948 l72.91338,0 l0,47.77948 z" fill-rule="evenodd" id="svg_207" class=""/><path fill="#e74c3c" d="m244.641733671093,122.21015198053362 l0,0 c-6.592636,0 -11.937027,-5.3443604 -11.937027,-11.937012 l0,0 c0,-3.1658936 1.2576599,-6.2020874 3.4962769000000002,-8.440735 c2.238617,-2.2386475 5.2748413,-3.4962769000000002 8.44075,-3.4962769000000002 l0,0 c6.592621,0 11.936981,5.3444214 11.936981,11.937012 l0,0 c0,6.5926514 -5.3443604,11.937012 -11.936981,11.937012 z" fill-rule="evenodd" id="svg_208" class=""/><path fill="#ecf0f1" d="m135.25853367109298,70.59321198053362 l0,0 c-4.105179,0 -7.433075,-3.327942 -7.433075,-7.4331055 l0,-23.496033 l0,0 c0,-1.9713745 0.78312683,-3.8619995 2.1770935,-5.2559814 c1.3939667,-1.3939819 3.284607,-2.177124 5.2559814,-2.177124 l0,0 l0,0 c4.1051636,0 7.4330597,3.327942 7.4330597,7.4331055 l0,23.496033 c0,4.1051636 -3.327896,7.4331055 -7.4330597,7.4331055 z" fill-rule="evenodd" id="svg_209" class=""/><path fill="#ecf0f1" d="m231.119423671093,78.97901198053364 l0,-23.874023 l23.874008,0 l0,23.874023 z" fill-rule="evenodd" id="svg_210" class=""/><path fill="#2c3e50" d="m243.05641367109297,74.2388419805336 l0,0 c-3.974701,0 -7.1968384,-3.222107 -7.1968384,-7.1968384 l0,0 c0,-1.9086914000000008 0.7582397500000008,-3.7392578 2.1079102,-5.088928 c1.3496704000000004,-1.3496704000000004 3.1802216,-2.1079102 5.088928,-2.1079102 l0,0 c3.9747314,0 7.196869,3.222168 7.196869,7.1968384 l0,0 c0,3.9747314 -3.2221375,7.1968384 -7.196869,7.1968384 z" fill-rule="evenodd" id="svg_211" class=""/><path fill="#2c3e50" d="m31.612859671092984,59.84516198053359 l0,-18.078735 l40.15748,0 l0,18.078735 z" fill-rule="evenodd" id="svg_212" class=""/><path fill="#ecf0f1" d="m31.612859671092984,59.84516198053359 l0,-6.7401733 l40.15748,0 l0,6.7401733 z" fill-rule="evenodd" id="svg_213" class=""/><path fill="#2c3e50" d="m101.31889867109298,128.50904198053365 l0,-12.440979 l118.58267,0 l0,12.440979 z" fill-rule="evenodd" id="svg_214" class=""/><path fill="#2c3e50" d="m154.73097367109298,70.59321198053362 l0,-12.440979 l65.165344,0 l0,12.440979 z" fill-rule="evenodd" id="svg_215" class=""/><path fill="#2c3e50" d="m85.18241367109299,70.59321198053362 l0,-12.440979 l37.732277,0 l0,12.440979 z" fill-rule="evenodd" id="svg_216" class=""/><path fill="#34495e" d="m195.77297367109298,100.5276119805336 l0,0 c-3.9747162,0 -7.1968536,-3.222168 -7.1968536,-7.1968994 l0,0 c0,-1.9086914000000008 0.7582397500000008,-3.7392578 2.1079102,-5.088928 c1.3496704000000004,-1.3496704000000004 3.1802216,-2.1079102 5.0889435,-2.1079102 l0,0 c3.974701,0 7.1968536,3.222168 7.1968536,7.1968384 l0,0 c0,3.9747314 -3.2221527,7.1968994 -7.1968536,7.1968994 z" fill-rule="evenodd" id="svg_217" class=""/><path fill="#34495e" d="m114.52716367109298,100.5276119805336 l0,0 c-3.9747162,0 -7.1968536,-3.222168 -7.1968536,-7.1968994 l0,0 c0,-1.9086914000000008 0.7582321,-3.7392578 2.1079025,-5.088928 c1.3496780000000004,-1.3496704000000004 3.1802216,-2.1079102 5.088951,-2.1079102 l0,0 c3.974701,0 7.1968384,3.222168 7.1968384,7.1968384 l0,0 c0,3.9747314 -3.2221375,7.1968994 -7.1968384,7.1968994 z" fill-rule="evenodd" id="svg_218" class=""/><path fill="#34495e" d="m214.27428367109297,95.5276119805336 l0,-4.393738 l0,0 c0,-0.5575561499999989 0.22149658000000041,-1.0923462 0.615768430000001,-1.4865723000000002 c0.3942718500000003,-0.3942871000000004 0.9290160999999995,-0.6157837 1.4865875000000002,-0.6157837 l3.5039368,0 c0.00004577636700000009,0 0.00007629394500000016,0.00006103515600000008 0.00007629394500000016,0.00006103515600000008 l-0.00007629394500000016,8.598389000000001 l0,0 c0,0 -0.00003051757800000006,0.00006103515600000008 -0.00007629394500000016,0.00006103515600000008 l-3.5038605,-0.00006103515600000008 l0,0 c-1.1611023,0 -2.102356,-0.9412842 -2.102356,-2.102356 z" fill-rule="evenodd" id="svg_219" class=""/><path fill="#000000" fill-opacity="0.0" d="m167.74611367109298,9.899551980533602 l91.1181,0 l0,22.204712 l-91.1181,0 z" fill-rule="evenodd" id="svg_220" class=""/><path fill="#ffffff" d="m181.21486367109298,23.875111980533575 q0,0.3437500000000004 -0.140625,0.7031250000000008 q-0.125,0.3437500000000004 -0.40625,0.6093750000000008 q-0.28125,0.265625 -0.7187500000000008,0.4375000000000004 q-0.4218750000000004,0.171875 -1.015625,0.171875 l-0.7031250000000008,0 l0,2.0625 l-0.7968750000000008,0 l0,-5.75 l1.625,0 q0.4218750000000004,0 0.8125,0.0937500000000002 q0.3906250000000004,0.0937500000000002 0.6875000000000008,0.3125000000000004 q0.2968750000000004,0.203125 0.46875,0.5468750000000008 q0.18750000000000022,0.3281250000000004 0.18750000000000022,0.8125 zm-0.8125,0.03125000000000005 q0,-0.5468750000000008 -0.3750000000000004,-0.8437500000000008 q-0.3593750000000004,-0.2968750000000004 -1,-0.2968750000000004 l-0.7968750000000008,0 l0,2.359375 l0.7187500000000008,0 q0.7031250000000008,0 1.078125,-0.2968750000000004 q0.3750000000000004,-0.2968750000000004 0.3750000000000004,-0.9218750000000008 zm3.5505219,-1.125 l-1.328125,0 l0,-0.6718750000000016 l3.4375,0 l0,0.6718750000000016 l-1.3125,0 l0,4.40625 l1.3125,0 l0,0.6718750000000016 l-3.4375,0 l0,-0.6718750000000016 l1.328125,0 l0,-4.40625 zm7.425522,4.859375 q-0.6875000000000008,0.2968750000000004 -1.453125,0.2968750000000004 q-1.21875,0 -1.875,-0.7343750000000008 q-0.6406250000000016,-0.7343750000000008 -0.6406250000000016,-2.15625 q0,-0.6875000000000008 0.171875,-1.234375 q0.18750000000000022,-0.5625 0.5156250000000008,-0.9531250000000008 q0.3437500000000004,-0.3906250000000004 0.8125,-0.5937500000000008 q0.46875,-0.21875000000000022 1.0625,-0.21875000000000022 q0.40625,0 0.7500000000000008,0.0781250000000002 q0.3437500000000004,0.0625000000000001 0.6562500000000008,0.203125 l0,0.7656250000000016 q-0.3125000000000004,-0.171875 -0.6562500000000008,-0.265625 q-0.3281250000000004,-0.0937500000000002 -0.7187500000000008,-0.0937500000000002 q-0.40625,0 -0.7343750000000008,0.15625000000000022 q-0.3281250000000004,0.15625000000000022 -0.5625,0.453125 q-0.21875000000000022,0.28125 -0.3437500000000004,0.7031250000000008 q-0.125,0.40625 -0.125,0.9375 q0,1.109375 0.453125,1.6875 q0.453125,0.5625 1.328125,0.5625 q0.3750000000000004,0 0.7031250000000008,-0.0781250000000002 q0.3437500000000004,-0.0937500000000002 0.6562500000000008,-0.25 l0,0.7343750000000008 zm10.257294,0.21875000000000022 l-3.59375,0 l0,-0.7187500000000008 l1.46875,0 l0,-4.1875 l-1.375,0.7500000000000008 l-0.28125,-0.6562500000000008 l1.828125,-0.9531250000000008 l0.6718750000000016,0 l0,5.046875 l1.28125,0 l0,0.7187500000000008 zm5.191147,-1.4375 q0,0.3593750000000004 -0.15625000000000022,0.6406250000000016 q-0.15625000000000022,0.28125 -0.4218750000000004,0.4843750000000004 q-0.265625,0.18750000000000022 -0.6406250000000016,0.2968750000000004 q-0.3593750000000004,0.0937500000000002 -0.78125,0.0937500000000002 q-0.46875,0 -0.8281250000000008,-0.0937500000000002 q-0.3593750000000004,-0.1093750000000001 -0.6093750000000008,-0.2968750000000004 q-0.234375,-0.203125 -0.3593750000000004,-0.453125 q-0.125,-0.265625 -0.125,-0.5781250000000008 q0,-0.53125 0.2968750000000004,-0.90625 q0.2968750000000004,-0.3750000000000004 0.9218750000000008,-0.6875000000000008 q-0.5625,-0.2968750000000004 -0.8281250000000008,-0.6406250000000016 q-0.265625,-0.3437500000000004 -0.265625,-0.7968750000000008 q0,-0.28125 0.1093750000000001,-0.53125 q0.125,-0.265625 0.3593750000000004,-0.46875 q0.234375,-0.203125 0.5781250000000008,-0.3281250000000004 q0.3437500000000004,-0.125 0.8125,-0.125 q0.4375000000000004,0 0.7656250000000016,0.0937500000000002 q0.3437500000000004,0.0937500000000002 0.5781250000000008,0.28125 q0.234375,0.171875 0.3437500000000004,0.4218750000000004 q0.1093750000000001,0.25 0.1093750000000001,0.5625 q0,0.5 -0.28125,0.8593750000000008 q-0.265625,0.3437500000000004 -0.78125,0.6093750000000008 q0.25,0.125 0.46875,0.28125 q0.21875000000000022,0.140625 0.3750000000000004,0.3437500000000004 q0.171875,0.18750000000000022 0.265625,0.4218750000000004 q0.0937500000000002,0.21875000000000022 0.0937500000000002,0.5156250000000008 zm-0.9218750000000008,-2.96875 q0,-0.3906250000000004 -0.28125,-0.5781250000000008 q-0.265625,-0.203125 -0.7656250000000016,-0.203125 q-0.4843750000000004,0 -0.7656250000000016,0.18750000000000022 q-0.265625,0.18750000000000022 -0.265625,0.5625 q0,0.171875 0.0625000000000001,0.3281250000000004 q0.0625000000000001,0.140625 0.203125,0.265625 q0.140625,0.125 0.3437500000000004,0.25 q0.203125,0.125 0.5,0.25 q0.4843750000000004,-0.234375 0.7187500000000008,-0.4843750000000004 q0.25,-0.25 0.25,-0.5781250000000008 zm0.0781250000000002,3.015625 q0,-0.15625000000000022 -0.0468750000000001,-0.3125000000000004 q-0.0468750000000001,-0.15625000000000022 -0.18750000000000022,-0.2968750000000004 q-0.140625,-0.15625000000000022 -0.3750000000000004,-0.2968750000000004 q-0.21875000000000022,-0.15625000000000022 -0.5781250000000008,-0.3125000000000004 q-0.2968750000000004,0.140625 -0.5,0.28125 q-0.203125,0.140625 -0.3281250000000004,0.2968750000000004 q-0.125,0.140625 -0.18750000000000022,0.3125000000000004 q-0.0468750000000001,0.15625000000000022 -0.0468750000000001,0.3281250000000004 q0,0.18750000000000022 0.0781250000000002,0.3437500000000004 q0.0937500000000002,0.15625000000000022 0.234375,0.265625 q0.15625000000000022,0.0937500000000002 0.3593750000000004,0.15625000000000022 q0.21875000000000022,0.0468750000000001 0.453125,0.0468750000000001 q0.234375,0 0.4375000000000004,-0.0468750000000001 q0.21875000000000022,-0.0468750000000001 0.3593750000000004,-0.140625 q0.15625000000000022,-0.1093750000000001 0.234375,-0.25 q0.0937500000000002,-0.15625000000000022 0.0937500000000002,-0.3750000000000004 zm6.159897,-4.109375 q-0.6093750000000008,-0.125 -1.046875,-0.125 q-1.03125,0 -1.03125,1.078125 l0,0.78125 l1.9375,0 l0,0.6250000000000008 l-1.9375,0 l0,3.140625 l-0.78125,0 l0,-3.140625 l-1.40625,0 l0,-0.6250000000000008 l1.40625,0 l0,-0.7343750000000008 q0,-1.7656250000000016 1.84375,-1.7656250000000016 q0.453125,0 1.015625,0.1093750000000001 l0,0.6562500000000008 zm-4.625,1.09375 l0,0 zm9.566147,4.40625 l-3.796875,0 l0,-0.6875000000000008 l1.484375,-1.46875 q0.3750000000000004,-0.3593750000000004 0.5937500000000008,-0.6250000000000008 q0.234375,-0.265625 0.3593750000000004,-0.4843750000000004 q0.125,-0.21875000000000022 0.171875,-0.40625 q0.0468750000000001,-0.203125 0.0468750000000001,-0.4218750000000004 q0,-0.21875000000000022 -0.0625000000000001,-0.40625 q-0.0468750000000001,-0.18750000000000022 -0.171875,-0.3281250000000004 q-0.125,-0.15625000000000022 -0.3125000000000004,-0.234375 q-0.18750000000000022,-0.0781250000000002 -0.453125,-0.0781250000000002 q-0.3593750000000004,0 -0.6562500000000008,0.15625000000000022 q-0.2968750000000004,0.15625000000000022 -0.5468750000000008,0.4218750000000004 l-0.4218750000000004,-0.5 q0.3281250000000004,-0.3437500000000004 0.7500000000000008,-0.5468750000000008 q0.4218750000000004,-0.21875000000000022 0.984375,-0.21875000000000022 q0.3750000000000004,0 0.6875000000000008,0.125 q0.3281250000000004,0.1093750000000001 0.5468750000000008,0.3281250000000004 q0.234375,0.21875000000000022 0.3593750000000004,0.53125 q0.125,0.2968750000000004 0.125,0.6875000000000008 q0,0.3437500000000004 -0.0937500000000002,0.6250000000000008 q-0.0781250000000002,0.28125 -0.265625,0.5625 q-0.171875,0.265625 -0.453125,0.5781250000000008 q-0.265625,0.2968750000000004 -0.6250000000000008,0.6406250000000016 l-1.046875,1.015625 l2.796875,0 l0,0.7343750000000008 zm4.972397,-1.84375 q0,0.4375000000000004 -0.18750000000000022,0.7968750000000008 q-0.171875,0.3437500000000004 -0.5,0.5937500000000008 q-0.3281250000000004,0.25 -0.7656250000000016,0.3906250000000004 q-0.4375000000000004,0.140625 -0.9531250000000008,0.140625 q-0.125,0 -0.28125,-0.015625000000000024 q-0.140625,0 -0.28125,-0.015625000000000024 q-0.140625,0 -0.28125,-0.015625000000000024 q-0.140625,-0.015625000000000024 -0.25,-0.03125000000000005 l0,-0.6875000000000008 q0.234375,0.0468750000000001 0.53125,0.0781250000000002 q0.3125000000000004,0.03125000000000005 0.6250000000000008,0.03125000000000005 q0.3593750000000004,0 0.6406250000000016,-0.0781250000000002 q0.28125,-0.0937500000000002 0.46875,-0.25 q0.203125,-0.15625000000000022 0.3125000000000004,-0.3750000000000004 q0.1093750000000001,-0.21875000000000022 0.1093750000000001,-0.5 q0,-0.5468750000000008 -0.3906250000000004,-0.78125 q-0.3906250000000004,-0.25 -1.109375,-0.25 l-1.078125,0 l0,-2.9375 l3.09375,0 l0,0.6718750000000016 l-2.375,0 l0,1.609375 l0.5,0 q0.40625,0 0.7968750000000008,0.0781250000000002 q0.3906250000000004,0.0781250000000002 0.6875000000000008,0.265625 q0.3125000000000004,0.18750000000000022 0.5,0.5 q0.18750000000000022,0.3125000000000004 0.18750000000000022,0.78125 zm5.128647,0 q0,0.4375000000000004 -0.18750000000000022,0.7968750000000008 q-0.171875,0.3437500000000004 -0.5,0.5937500000000008 q-0.3281250000000004,0.25 -0.7656250000000016,0.3906250000000004 q-0.4375000000000004,0.140625 -0.9531250000000008,0.140625 q-0.125,0 -0.28125,-0.015625000000000024 q-0.140625,0 -0.28125,-0.015625000000000024 q-0.140625,0 -0.28125,-0.015625000000000024 q-0.140625,-0.015625000000000024 -0.25,-0.03125000000000005 l0,-0.6875000000000008 q0.234375,0.0468750000000001 0.53125,0.0781250000000002 q0.3125000000000004,0.03125000000000005 0.6250000000000008,0.03125000000000005 q0.3593750000000004,0 0.6406250000000016,-0.0781250000000002 q0.28125,-0.0937500000000002 0.46875,-0.25 q0.203125,-0.15625000000000022 0.3125000000000004,-0.3750000000000004 q0.1093750000000001,-0.21875000000000022 0.1093750000000001,-0.5 q0,-0.5468750000000008 -0.3906250000000004,-0.78125 q-0.3906250000000004,-0.25 -1.109375,-0.25 l-1.078125,0 l0,-2.9375 l3.09375,0 l0,0.6718750000000016 l-2.375,0 l0,1.609375 l0.5,0 q0.40625,0 0.7968750000000008,0.0781250000000002 q0.3906250000000004,0.0781250000000002 0.6875000000000008,0.265625 q0.3125000000000004,0.18750000000000022 0.5,0.5 q0.18750000000000022,0.3125000000000004 0.18750000000000022,0.78125 zm5.409897,-1.03125 q0,0.6718750000000016 -0.140625,1.21875 q-0.125,0.53125 -0.3906250000000004,0.9218750000000008 q-0.265625,0.3906250000000004 -0.6718750000000016,0.6093750000000008 q-0.3906250000000004,0.203125 -0.9218750000000008,0.203125 q-0.46875,0 -0.8437500000000008,-0.171875 q-0.3750000000000004,-0.171875 -0.6562500000000008,-0.53125 q-0.265625,-0.3593750000000004 -0.40625,-0.9218750000000008 q-0.140625,-0.5625 -0.140625,-1.328125 q0,-0.6562500000000008 0.125,-1.203125 q0.140625,-0.5468750000000008 0.40625,-0.9218750000000008 q0.265625,-0.3906250000000004 0.6562500000000008,-0.6093750000000008 q0.40625,-0.21875000000000022 0.9375,-0.21875000000000022 q0.46875,0 0.8437500000000008,0.18750000000000022 q0.3750000000000004,0.171875 0.6406250000000016,0.53125 q0.265625,0.3593750000000004 0.40625,0.9218750000000008 q0.15625000000000022,0.5468750000000008 0.15625000000000022,1.3125 zm-0.78125,0.03125000000000005 q0,-0.15625000000000022 -0.015625000000000024,-0.2968750000000004 q0,-0.140625 -0.015625000000000024,-0.28125 l-2.421875,1.796875 q0.0625000000000001,0.234375 0.15625000000000022,0.4375000000000004 q0.1093750000000001,0.18750000000000022 0.25,0.3281250000000004 q0.140625,0.125 0.3125000000000004,0.203125 q0.18750000000000022,0.0781250000000002 0.4218750000000004,0.0781250000000002 q0.2968750000000004,0 0.5468750000000008,-0.140625 q0.25,-0.140625 0.4218750000000004,-0.4218750000000004 q0.171875,-0.2968750000000004 0.25,-0.7187500000000008 q0.0937500000000002,-0.4218750000000004 0.0937500000000002,-0.984375 zm-2.625,-0.0468750000000001 q0,0.125 0,0.265625 q0.015625000000000024,0.140625 0.015625000000000024,0.265625 l2.4375,-1.796875 q-0.0625000000000001,-0.21875000000000022 -0.171875,-0.40625 q-0.0937500000000002,-0.18750000000000022 -0.234375,-0.3125000000000004 q-0.140625,-0.140625 -0.3281250000000004,-0.21875000000000022 q-0.171875,-0.0781250000000002 -0.40625,-0.0781250000000002 q-0.2968750000000004,0 -0.5468750000000008,0.15625000000000022 q-0.234375,0.140625 -0.40625,0.4375000000000004 q-0.171875,0.28125 -0.265625,0.7031250000000008 q-0.0937500000000002,0.4218750000000004 -0.0937500000000002,0.984375 z" fill-rule="nonzero" id="svg_221" class=""/><path fill="#2c3e50" d="m101.31889867109298,144.90551198053356 l0,-12.440979 l37.16536,0 l0,12.440979 z" fill-rule="evenodd" id="svg_222" class=""/><path fill="#2c3e50" d="m85.18241367109299,115.75331198053357 l12.440941,0 l0,29.13385 l-12.440941,0 z" fill-rule="evenodd" id="svg_223" class=""/><path fill="#f39c12" d="m107.71656367109298,45.103211980533615 l0,0 c-1.9134293,0 -3.464569,-1.5511475 -3.464569,-3.4645386 l0,-6.48822 l0,0 c0,-0.91882324 0.36501312,-1.8000488000000003 1.0147476,-2.4498290000000003 c0.6497345000000008,-0.649719240000001 1.5309601,-1.0147095 2.4498215,-1.0147095 l0,0 l0,0 c1.9134293,0 3.464569,1.5511475 3.464569,3.4645386 l0,6.48822 l0,0 c0,1.9133911000000001 -1.5511398,3.4645386 -3.464569,3.4645386 z" fill-rule="evenodd" id="svg_224" class=""/><path fill="#f39c12" d="m118.257253671093,45.103211980533615 l0,0 c-1.9134368999999998,0 -3.464569,-1.5511475 -3.464569,-3.4645386 l0,-6.48822 l0,0 c0,-0.91882324 0.3650055000000003,-1.8000488000000003 1.01474,-2.4498290000000003 c0.6497345000000008,-0.649719240000001 1.5309601,-1.0147095 2.4498290000000003,-1.0147095 l0,0 l0,0 c1.9134216,0 3.4645538,1.5511475 3.4645538,3.4645386 l0,6.48822 l0,0 c0,1.9133911000000001 -1.5511322,3.4645386 -3.4645538,3.4645386 z" fill-rule="evenodd" id="svg_225" class=""/><path fill="#f39c12" d="m47.43834867109299,130.32105198053364 l0,0 c0,-1.9133911000000001 1.5511398,-3.4645386 3.4645653,-3.4645386 l6.4881897,0 l0,0 c0.9188614,0 1.800087,0.36499023 2.4498215,1.0147705 c0.6497345000000008,0.649719240000001 1.0147476,1.5309448 1.0147476,2.449768 l0,0 l0,0 c0,1.9134520999999998 -1.5511398,3.4645996 -3.464569,3.4645996 l-6.4881897,0 l0,0 c-1.9134254,0 -3.4645653,-1.5511475 -3.4645653,-3.4645996 z" fill-rule="evenodd" id="svg_226" class=""/><path fill="#ffffff" d="m251.94661367109296,25.201671980533547 l0,0 c-3.7050781,0 -6.7086487,-3.00354 -6.7086487,-6.708679 l0,0 c0,-1.7792358 0.7067871,-3.4855957 1.9649048000000002,-4.7437134 c1.2581177000000001,-1.2581177000000001 2.964508,-1.9649048000000002 4.743744,-1.9649048000000002 l0,0 c3.7051086,0 6.708679,3.00354 6.708679,6.708618 l0,0 c0,3.7051392 -3.0035706,6.708679 -6.708679,6.708679 z" fill-rule="evenodd" id="svg_227" class=""/><path stroke="#2ecc71" stroke-width="1.0" stroke-linejoin="round" stroke-linecap="butt" d="m251.94661367109296,25.201671980533547 l0,0 c-3.7050781,0 -6.7086487,-3.00354 -6.7086487,-6.708679 l0,0 c0,-1.7792358 0.7067871,-3.4855957 1.9649048000000002,-4.7437134 c1.2581177000000001,-1.2581177000000001 2.964508,-1.9649048000000002 4.743744,-1.9649048000000002 l0,0 c3.7051086,0 6.708679,3.00354 6.708679,6.708618 l0,0 c0,3.7051392 -3.0035706,6.708679 -6.708679,6.708679 z" fill-rule="evenodd" id="svg_228" class=""/><path fill="#ffffff" d="m253.622973671093,144.56771198053355 l0,0 c-3.7050781,0 -6.7086487,-3.003601 -6.7086487,-6.708679 l0,0 c0,-1.7792358 0.7068176,-3.4855957 1.9649353,-4.7437134 c1.2581177000000001,-1.2581177000000001 2.9644775,-1.9649658 4.7437134,-1.9649658 l0,0 c3.7051086,0 6.708679,3.003601 6.708679,6.708679 l0,0 c0,3.7050781 -3.0035706,6.708679 -6.708679,6.708679 z" fill-rule="evenodd" id="svg_229" class=""/><path stroke="#2ecc71" stroke-width="1.0" stroke-linejoin="round" stroke-linecap="butt" d="m253.622973671093,144.56771198053355 l0,0 c-3.7050781,0 -6.7086487,-3.003601 -6.7086487,-6.708679 l0,0 c0,-1.7792358 0.7068176,-3.4855957 1.9649353,-4.7437134 c1.2581177000000001,-1.2581177000000001 2.9644775,-1.9649658 4.7437134,-1.9649658 l0,0 c3.7051086,0 6.708679,3.003601 6.708679,6.708679 l0,0 c0,3.7050781 -3.0035706,6.708679 -6.708679,6.708679 z" fill-rule="evenodd" id="svg_230" class=""/><path fill="#ffffff" d="m20.57526367109299,25.201671980533547 l0,0 c-3.7050934,0 -6.708664,-3.00354 -6.708664,-6.708679 l0,0 c0,-1.7792358 0.7068043,-3.4855957 1.964922,-4.7437134 c1.2581177000000001,-1.2581177000000001 2.964491,-1.9649048000000002 4.743742,-1.9649048000000002 l0,0 c3.7050896,0 6.70866,3.00354 6.70866,6.708618 l0,0 c0,3.7051392 -3.0035706,6.708679 -6.70866,6.708679 z" fill-rule="evenodd" id="svg_231" class=""/><path stroke="#2ecc71" stroke-width="1.0" stroke-linejoin="round" stroke-linecap="butt" d="m20.57526367109299,25.201671980533547 l0,0 c-3.7050934,0 -6.708664,-3.00354 -6.708664,-6.708679 l0,0 c0,-1.7792358 0.7068043,-3.4855957 1.964922,-4.7437134 c1.2581177000000001,-1.2581177000000001 2.964491,-1.9649048000000002 4.743742,-1.9649048000000002 l0,0 c3.7050896,0 6.70866,3.00354 6.70866,6.708618 l0,0 c0,3.7051392 -3.0035706,6.708679 -6.70866,6.708679 z" fill-rule="evenodd" id="svg_232" class=""/><path fill="#ffffff" d="m20.57526367109299,143.72951198053363 l0,0 c-3.7050934,0 -6.708664,-3.003601 -6.708664,-6.708679 l0,0 c0,-1.7792358 0.7068043,-3.4855957 1.964922,-4.7437134 c1.2581177000000001,-1.2581177000000001 2.964491,-1.9649658 4.743742,-1.9649658 l0,0 c3.7050896,0 6.70866,3.003601 6.70866,6.708679 l0,0 c0,3.7050781 -3.0035706,6.708679 -6.70866,6.708679 z" fill-rule="evenodd" id="svg_233" class=""/><path stroke="#2ecc71" stroke-width="1.0" stroke-linejoin="round" stroke-linecap="butt" d="m20.57526367109299,143.72951198053363 l0,0 c-3.7050934,0 -6.708664,-3.003601 -6.708664,-6.708679 l0,0 c0,-1.7792358 0.7068043,-3.4855957 1.964922,-4.7437134 c1.2581177000000001,-1.2581177000000001 2.964491,-1.9649658 4.743742,-1.9649658 l0,0 c3.7050896,0 6.70866,3.003601 6.70866,6.708679 l0,0 c0,3.7050781 -3.0035706,6.708679 -6.70866,6.708679 z" fill-rule="evenodd" id="svg_234" class=""/><path fill="#2c3e50" d="m31.14304367109299,119.31495198053358 l12.440945,0 l0,21.322876 l-12.440945,0 z" fill-rule="evenodd" id="svg_235" class=""/><path fill="#2c3e50" d="m68.77033767109299,23.097111980533555 l0,12.440979 l-21.32283,0 l0,-12.440979 z" fill-rule="evenodd" id="svg_236" class=""/><path fill="#2c3e50" d="m12.014436671092987,35.0761119805336 l12.440945,0 l0,28 l-12.440945,0 z" fill-rule="evenodd" id="svg_237" class=""/><path fill="#2c3e50" d="m56.26638367109298,142.7323119805336 l0,0 c0,-1.9134520999999998 1.5511398,-3.4645996 3.4645615,-3.4645996 l15.968506,0 c0.9188614,0 1.800087,0.3650512700000003 2.4498215,1.0147705 c0.6497345000000008,0.649719240000001 1.0147476,1.5309448 1.0147476,2.4498290000000003 l0,0 l0,0 c0,1.9133911000000001 -1.5511398,3.4645386 -3.464569,3.4645386 l-15.968506,0 c-1.9134216,0 -3.4645615,-1.5511475 -3.4645615,-3.4645386 z" fill-rule="evenodd" id="svg_238" class=""/><path fill="#e2a596" d="m228.393163671093,98.8241719805336 l0,0 c1.9134368999999998,0 3.464569,1.5511475 3.464569,3.4645386 l0,15.968506 c0,0.9188843 -0.3650207500000004,1.8001099 -1.01474,2.4498290000000003 c-0.6497345000000008,0.649719240000001 -1.5309601,1.0147705 -2.4498290000000003,1.0147705 l0,0 l0,0 c-1.9134216,0 -3.464569,-1.5511475 -3.464569,-3.4645996 l0,-15.968506 c0,-1.9133911000000001 1.5511475,-3.4645386 3.464569,-3.4645386 z" fill-rule="evenodd" id="svg_239" class=""/><path fill="#e2a596" d="m215.527033671093,31.303661980533548 l0,0 c1.9134216,0 3.464569,1.5511475 3.464569,3.4645996 l0,15.968506 c0,0.91882324 -0.3650207500000004,1.8000488000000003 -1.0147552,2.449768 c-0.6497345000000008,0.6497803000000006 -1.5309601,1.0147705 -2.4498138000000003,1.0147705 l0,0 l0,0 c-1.9134368999999998,0 -3.464569,-1.5511475 -3.464569,-3.4645386 l0,-15.968506 c0,-1.9134520999999998 1.5511322,-3.4645996 3.464569,-3.4645996 z" fill-rule="evenodd" id="svg_240" class=""/><path fill="#000000" fill-opacity="0.0" d="m274.507863671093,56.61171198053364 l0,49.82672 l-22.204712,0 l0,-49.82672 z" fill-rule="evenodd" id="svg_241" class=""/><path fill="#ffffff" d="m258.110373671093,70.51411198053358 q-0.4218750000000004,0 -0.7343750000000008,-0.171875 q-0.2968750000000004,-0.15625000000000022 -0.5,-0.453125 q-0.203125,-0.2968750000000004 -0.3125000000000004,-0.7187500000000008 q-0.0937500000000002,-0.4218750000000004 -0.0937500000000002,-0.9218750000000008 q0,-0.234375 0.015625000000000024,-0.46875 q0.015625000000000024,-0.21875000000000022 0.0468750000000001,-0.4375000000000004 q0.03125000000000005,-0.203125 0.0625000000000001,-0.3906250000000004 q0.03125000000000005,-0.171875 0.0781250000000002,-0.3281250000000004 l0.7500000000000008,0 q-0.125,0.3281250000000004 -0.203125,0.7343750000000008 q-0.0625000000000001,0.4218750000000004 -0.0625000000000001,0.9375 q0,0.3906250000000004 0.0625000000000001,0.6562500000000008 q0.0625000000000001,0.265625 0.171875,0.4218750000000004 q0.125,0.171875 0.28125,0.25 q0.171875,0.0781250000000002 0.3906250000000004,0.0781250000000002 q0.234375,0 0.3906250000000004,-0.125 q0.171875,-0.125 0.2968750000000004,-0.3437500000000004 q0.125,-0.203125 0.234375,-0.4843750000000004 q0.1093750000000001,-0.265625 0.21875000000000022,-0.5468750000000008 q0.125,-0.28125 0.25,-0.5625 q0.140625,-0.265625 0.3125000000000004,-0.4843750000000004 q0.18750000000000022,-0.203125 0.4375000000000004,-0.3281250000000004 q0.25,-0.125 0.5781250000000008,-0.125 q0.2968750000000004,0 0.5781250000000008,0.1093750000000001 q0.2968750000000004,0.125 0.5156250000000008,0.3906250000000004 q0.21875000000000022,0.265625 0.3593750000000004,0.6718750000000016 q0.140625,0.40625 0.140625,0.9687500000000008 q0,0.140625 -0.015625000000000024,0.3125000000000004 q-0.015625000000000024,0.171875 -0.0468750000000001,0.3437500000000004 q-0.015625000000000024,0.171875 -0.0468750000000001,0.3437500000000004 q-0.03125000000000005,0.171875 -0.0625000000000001,0.3125000000000004 l-0.7031250000000008,0 q0.0937500000000002,-0.3437500000000004 0.140625,-0.6875000000000008 q0.0468750000000001,-0.3281250000000004 0.0468750000000001,-0.6406250000000016 q0,-0.6718750000000016 -0.21875000000000022,-1 q-0.21875000000000022,-0.3125000000000004 -0.6093750000000008,-0.3125000000000004 q-0.21875000000000022,0 -0.3906250000000004,0.125 q-0.171875,0.140625 -0.3125000000000004,0.3437500000000004 q-0.125,0.21875000000000022 -0.234375,0.4843750000000004 q-0.0937500000000002,0.265625 -0.21875000000000022,0.5468750000000008 q-0.1093750000000001,0.28125 -0.25,0.5468750000000008 q-0.140625,0.28125 -0.3281250000000004,0.4843750000000004 q-0.171875,0.21875000000000022 -0.4218750000000004,0.3437500000000004 q-0.25,0.125 -0.5937500000000008,0.125 zm-1.5625,4.284912 l0.5937500000000008,-0.015625000000000024 q-0.3593750000000004,-0.3593750000000004 -0.5156250000000008,-0.7343750000000008 q-0.15625000000000022,-0.3593750000000004 -0.15625000000000022,-0.7656250000000016 q0,-0.3906250000000004 0.0937500000000002,-0.6562500000000008 q0.0937500000000002,-0.265625 0.265625,-0.4375000000000004 q0.171875,-0.171875 0.3906250000000004,-0.265625 q0.234375,-0.0781250000000002 0.5,-0.0781250000000002 q0.6718750000000016,0 1.046875,0.5 q0.3750000000000004,0.5 0.3750000000000004,1.46875 l0,0.90625 l0.3906250000000004,0 q0.3906250000000004,0 0.6250000000000008,-0.25 q0.234375,-0.25 0.234375,-0.7656250000000016 q0,-0.3750000000000004 -0.0937500000000002,-0.7343750000000008 q-0.0781250000000002,-0.3593750000000004 -0.234375,-0.7500000000000008 l0.6875000000000008,0 q0.0625000000000001,0.140625 0.1093750000000001,0.3125000000000004 q0.0468750000000001,0.18750000000000022 0.0781250000000002,0.3750000000000004 q0.0468750000000001,0.203125 0.0625000000000001,0.4218750000000004 q0.03125000000000005,0.21875000000000022 0.03125000000000005,0.4375000000000004 q0,0.40625 -0.0937500000000002,0.7187500000000008 q-0.0781250000000002,0.3281250000000004 -0.265625,0.5468750000000008 q-0.171875,0.21875000000000022 -0.453125,0.3281250000000004 q-0.265625,0.125 -0.6250000000000008,0.125 l-3.046875,0 l0,-0.6875000000000008 zm2.015625,-0.0781250000000002 l0,-0.9687500000000008 q0,-0.28125 -0.0625000000000001,-0.5 q-0.0625000000000001,-0.203125 -0.171875,-0.3437500000000004 q-0.0937500000000002,-0.125 -0.25,-0.18750000000000022 q-0.140625,-0.0625000000000001 -0.3281250000000004,-0.0625000000000001 q-0.125,0 -0.25,0.03125000000000005 q-0.1093750000000001,0.0468750000000001 -0.203125,0.125 q-0.0937500000000002,0.0937500000000002 -0.140625,0.234375 q-0.0468750000000001,0.140625 -0.0468750000000001,0.3437500000000004 q0,0.265625 0.15625000000000022,0.6093750000000008 q0.15625000000000022,0.3437500000000004 0.5,0.7187500000000008 l0.7968750000000008,0 zm2.390625,2.3786620000000003 l0,0.6875000000000008 l-0.7031250000000008,0.03125000000000005 q0.21875000000000022,0.18750000000000022 0.3750000000000004,0.3593750000000004 q0.15625000000000022,0.18750000000000022 0.25,0.3593750000000004 q0.0937500000000002,0.171875 0.125,0.3437500000000004 q0.03125000000000005,0.18750000000000022 0.03125000000000005,0.3906250000000004 q0,0.6718750000000016 -0.40625,1.015625 q-0.3906250000000004,0.3593750000000004 -1.203125,0.3593750000000004 l-2.875,0 l0,-0.7656250000000016 l2.8125,0 q0.5156250000000008,0 0.7656250000000016,-0.203125 q0.25,-0.18750000000000022 0.25,-0.5625 q0,-0.140625 -0.0468750000000001,-0.28125 q-0.03125000000000005,-0.125 -0.140625,-0.28125 q-0.0937500000000002,-0.140625 -0.28125,-0.3125000000000004 q-0.171875,-0.171875 -0.4375000000000004,-0.3750000000000004 l-2.921875,0 l0,-0.7656250000000016 l4.40625,0 zm-2.40625,8.894287 q-0.46875,0 -0.8593750000000008,-0.140625 q-0.3906250000000004,-0.125 -0.6562500000000008,-0.3906250000000004 q-0.265625,-0.25 -0.4218750000000004,-0.6250000000000008 q-0.140625,-0.3750000000000004 -0.140625,-0.8593750000000008 q0,-0.5468750000000008 0.140625,-0.9218750000000008 q0.140625,-0.3593750000000004 0.3906250000000004,-0.6093750000000008 q0.265625,-0.234375 0.6250000000000008,-0.3437500000000004 q0.3593750000000004,-0.0937500000000002 0.7968750000000008,-0.0937500000000002 l3.875,0 l0,0.78125 l-3.8125,0 q-0.3281250000000004,0 -0.5937500000000008,0.0625000000000001 q-0.25,0.0625000000000001 -0.4218750000000004,0.203125 q-0.171875,0.140625 -0.265625,0.3750000000000004 q-0.0781250000000002,0.234375 -0.0781250000000002,0.5625 q0,0.6250000000000008 0.3593750000000004,0.9218750000000008 q0.3593750000000004,0.2968750000000004 1.015625,0.2968750000000004 l3.796875,0 l0,0.78125 l-3.75,0 zm-0.4375000000000004,5.034851 q-0.4218750000000004,0 -0.7343750000000008,-0.171875 q-0.2968750000000004,-0.15625000000000022 -0.5,-0.453125 q-0.203125,-0.2968750000000004 -0.3125000000000004,-0.7187500000000008 q-0.0937500000000002,-0.4218750000000004 -0.0937500000000002,-0.9218750000000008 q0,-0.234375 0.015625000000000024,-0.46875 q0.015625000000000024,-0.21875000000000022 0.0468750000000001,-0.4375000000000004 q0.03125000000000005,-0.203125 0.0625000000000001,-0.3906250000000004 q0.03125000000000005,-0.171875 0.0781250000000002,-0.3281250000000004 l0.7500000000000008,0 q-0.125,0.3281250000000004 -0.203125,0.7343750000000008 q-0.0625000000000001,0.4218750000000004 -0.0625000000000001,0.9375 q0,0.3906250000000004 0.0625000000000001,0.6562500000000008 q0.0625000000000001,0.265625 0.171875,0.4218750000000004 q0.125,0.171875 0.28125,0.25 q0.171875,0.0781250000000002 0.3906250000000004,0.0781250000000002 q0.234375,0 0.3906250000000004,-0.125 q0.171875,-0.125 0.2968750000000004,-0.3437500000000004 q0.125,-0.203125 0.234375,-0.4843750000000004 q0.1093750000000001,-0.265625 0.21875000000000022,-0.5468750000000008 q0.125,-0.28125 0.25,-0.5625 q0.140625,-0.265625 0.3125000000000004,-0.4843750000000004 q0.18750000000000022,-0.203125 0.4375000000000004,-0.3281250000000004 q0.25,-0.125 0.5781250000000008,-0.125 q0.2968750000000004,0 0.5781250000000008,0.1093750000000001 q0.2968750000000004,0.125 0.5156250000000008,0.3906250000000004 q0.21875000000000022,0.265625 0.3593750000000004,0.6718750000000016 q0.140625,0.40625 0.140625,0.9687500000000008 q0,0.140625 -0.015625000000000024,0.3125000000000004 q-0.015625000000000024,0.171875 -0.0468750000000001,0.3437500000000004 q-0.015625000000000024,0.171875 -0.0468750000000001,0.3437500000000004 q-0.03125000000000005,0.171875 -0.0625000000000001,0.3125000000000004 l-0.7031250000000008,0 q0.0937500000000002,-0.3437500000000004 0.140625,-0.6875000000000008 q0.0468750000000001,-0.3281250000000004 0.0468750000000001,-0.6406250000000016 q0,-0.6718750000000016 -0.21875000000000022,-1 q-0.21875000000000022,-0.3125000000000004 -0.6093750000000008,-0.3125000000000004 q-0.21875000000000022,0 -0.3906250000000004,0.125 q-0.171875,0.140625 -0.3125000000000004,0.3437500000000004 q-0.125,0.21875000000000022 -0.234375,0.4843750000000004 q-0.0937500000000002,0.265625 -0.21875000000000022,0.5468750000000008 q-0.1093750000000001,0.28125 -0.25,0.5468750000000008 q-0.140625,0.28125 -0.3281250000000004,0.4843750000000004 q-0.171875,0.21875000000000022 -0.4218750000000004,0.3437500000000004 q-0.25,0.125 -0.5937500000000008,0.125 zm0.15625000000000022,5.222412 q-0.40625,0 -0.7343750000000008,-0.171875 q-0.3125000000000004,-0.15625000000000022 -0.53125,-0.453125 q-0.21875000000000022,-0.2968750000000004 -0.3437500000000004,-0.7187500000000008 q-0.1093750000000001,-0.40625 -0.1093750000000001,-0.9218750000000008 l0,-1.515625 l5.75,0 l0,1.65625 q0,1.921875 -1.40625,1.921875 q-0.46875,0 -0.7968750000000008,-0.234375 q-0.3281250000000004,-0.21875000000000022 -0.5,-0.7187500000000008 q-0.0468750000000001,0.234375 -0.15625000000000022,0.4375000000000004 q-0.0937500000000002,0.21875000000000022 -0.265625,0.3750000000000004 q-0.15625000000000022,0.15625000000000022 -0.3906250000000004,0.25 q-0.234375,0.0937500000000002 -0.5156250000000008,0.0937500000000002 zm2.515625,-1.015625 q0.18750000000000022,0 0.3437500000000004,-0.0625000000000001 q0.15625000000000022,-0.0468750000000001 0.265625,-0.18750000000000022 q0.1093750000000001,-0.125 0.171875,-0.3593750000000004 q0.0625000000000001,-0.21875000000000022 0.0625000000000001,-0.5625 l0,-0.7968750000000008 l-1.796875,0 l0,0.78125 q0,0.265625 0.0625000000000001,0.4843750000000004 q0.0625000000000001,0.21875000000000022 0.171875,0.3750000000000004 q0.125,0.15625000000000022 0.2968750000000004,0.234375 q0.18750000000000022,0.0937500000000002 0.4218750000000004,0.0937500000000002 zm-2.546875,0.18750000000000022 q0.21875000000000022,0 0.3906250000000004,-0.0937500000000002 q0.18750000000000022,-0.0937500000000002 0.2968750000000004,-0.28125 q0.125,-0.171875 0.18750000000000022,-0.4218750000000004 q0.0781250000000002,-0.25 0.0781250000000002,-0.5625 l0,-0.7968750000000008 l-1.984375,0 l0,0.8125 q0,0.6718750000000016 0.25,1 q0.25,0.3437500000000004 0.78125,0.3437500000000004 z" fill-rule="nonzero" id="svg_242" class=""/><path fill="#ecf0f1" d="m213.76443367109297,78.11791198053356 l0,-1.8582153 l4.8503876,0 l0,1.8582153 z" fill-rule="evenodd" id="svg_243" class=""/><path fill="#ecf0f1" d="m203.92716367109298,78.11791198053356 l0,-1.8582153 l4.850403,0 l0,1.8582153 z" fill-rule="evenodd" id="svg_244" class=""/><path fill="#ecf0f1" d="m194.08858367109298,78.11791198053356 l0,-1.8582153 l4.8503876,0 l0,1.8582153 z" fill-rule="evenodd" id="svg_245" class=""/><path fill="#ecf0f1" d="m184.387793671093,78.11791198053356 l0,-1.8582153 l4.850403,0 l0,1.8582153 z" fill-rule="evenodd" id="svg_246" class=""/><path fill="#ecf0f1" d="m174.688313671093,78.11791198053356 l0,-1.8582153 l4.850403,0 l0,1.8582153 z" fill-rule="evenodd" id="svg_247" class=""/><path fill="#ecf0f1" d="m164.85105367109298,78.11791198053356 l0,-1.8582153 l4.8503876,0 l0,1.8582153 z" fill-rule="evenodd" id="svg_248" class=""/><path fill="#ecf0f1" d="m155.01247367109298,78.11791198053356 l0,-1.8582153 l4.8503876,0 l0,1.8582153 z" fill-rule="evenodd" id="svg_249" class=""/><path fill="#ecf0f1" d="m145.311683671093,78.11791198053356 l0,-1.8582153 l4.8503876,0 l0,1.8582153 z" fill-rule="evenodd" id="svg_250" class=""/><path fill="#ecf0f1" d="m135.61089367109298,78.11791198053356 l0,-1.8582153 l4.850403,0 l0,1.8582153 z" fill-rule="evenodd" id="svg_251" class=""/><path fill="#ecf0f1" d="m125.910103671093,78.11791198053356 l0,-1.8582153 l4.850403,0 l0,1.8582153 z" fill-rule="evenodd" id="svg_252" class=""/><path fill="#ecf0f1" d="m116.20932367109299,78.11791198053356 l0,-1.8582153 l4.8503876,0 l0,1.8582153 z" fill-rule="evenodd" id="svg_253" class=""/><path fill="#ecf0f1" d="m106.50852367109299,78.11791198053356 l0,-1.8582153 l4.850395,0 l0,1.8582153 z" fill-rule="evenodd" id="svg_254" class=""/><path fill="#ecf0f1" d="m96.807743671093,78.11791198053356 l0,-1.8582153 l4.850395,0 l0,1.8582153 z" fill-rule="evenodd" id="svg_255" class=""/><path fill="#ecf0f1" d="m87.10695367109298,78.11791198053356 l0,-1.8582153 l4.850395,0 l0,1.8582153 z" fill-rule="evenodd" id="svg_256" class=""/><path fill="#ecf0f1" d="m213.76443367109297,110.36791198053356 l0,-1.8582153 l4.8503876,0 l0,1.8582153 z" fill-rule="evenodd" id="svg_257" class=""/><path fill="#ecf0f1" d="m203.92716367109298,110.36791198053356 l0,-1.8582153 l4.850403,0 l0,1.8582153 z" fill-rule="evenodd" id="svg_258" class=""/><path fill="#ecf0f1" d="m194.08858367109298,110.36791198053356 l0,-1.8582153 l4.8503876,0 l0,1.8582153 z" fill-rule="evenodd" id="svg_259" class=""/><path fill="#ecf0f1" d="m184.387793671093,110.36791198053356 l0,-1.8582153 l4.850403,0 l0,1.8582153 z" fill-rule="evenodd" id="svg_260" class=""/><path fill="#ecf0f1" d="m174.688313671093,110.36791198053356 l0,-1.8582153 l4.850403,0 l0,1.8582153 z" fill-rule="evenodd" id="svg_261" class=""/><path fill="#ecf0f1" d="m164.85105367109298,110.36791198053356 l0,-1.8582153 l4.8503876,0 l0,1.8582153 z" fill-rule="evenodd" id="svg_262" class=""/><path fill="#ecf0f1" d="m155.01247367109298,110.36791198053356 l0,-1.8582153 l4.8503876,0 l0,1.8582153 z" fill-rule="evenodd" id="svg_263" class=""/><path fill="#ecf0f1" d="m145.311683671093,110.36791198053356 l0,-1.8582153 l4.8503876,0 l0,1.8582153 z" fill-rule="evenodd" id="svg_264" class=""/><path fill="#ecf0f1" d="m135.61089367109298,110.36791198053356 l0,-1.8582153 l4.850403,0 l0,1.8582153 z" fill-rule="evenodd" id="svg_265" class=""/><path fill="#ecf0f1" d="m125.910103671093,110.36791198053356 l0,-1.8582153 l4.850403,0 l0,1.8582153 z" fill-rule="evenodd" id="svg_266" class=""/><path fill="#ecf0f1" d="m116.20932367109299,110.36791198053356 l0,-1.8582153 l4.8503876,0 l0,1.8582153 z" fill-rule="evenodd" id="svg_267" class=""/><path fill="#ecf0f1" d="m106.50852367109299,110.36791198053356 l0,-1.8582153 l4.850395,0 l0,1.8582153 z" fill-rule="evenodd" id="svg_268" class=""/><path fill="#ecf0f1" d="m96.807743671093,110.36791198053356 l0,-1.8582153 l4.850395,0 l0,1.8582153 z" fill-rule="evenodd" id="svg_269" class=""/><path fill="#ecf0f1" d="m87.10695367109298,110.36791198053356 l0,-1.8582153 l4.850395,0 l0,1.8582153 z" fill-rule="evenodd" id="svg_270" class=""/></g></svg>
